<?xml version="1.0" ?><svg id="Layer_1" style="enable-background:new 0 0 66 66;" version="1.1" viewBox="0 0 66 66" xml:space="preserve" xmlns="http://www.w3.org/2000/svg" xmlns:xlink="http://www.w3.org/1999/xlink"><g><path d="M64.23,39.61l-0.96-2.75c0.03-0.06,0.05-0.13,0.05-0.19c0-6.51-5.1-11.81-11.62-12.05c-3.32-0.12-7.31-0.38-8.05-0.52   c-0.03-0.01-0.05-0.01-0.08-0.02c0,0,0,0,0,0c0,0,0,0,0,0c0,0,0,0-0.01,0c-0.44-0.09-0.85-0.21-1.23-0.36c0,0,0,0,0,0c0,0,0,0,0,0   c-0.03-0.01-0.07-0.02-0.1-0.04c0,0,0,0-0.01,0c0,0,0,0,0,0c-5.27-2.16-6.58-11.6-6.91-15.56c-0.11-1.33-1.19-2.33-2.52-2.33h-4.22   H16.85h0c-1.05,0-1.95,0.64-2.33,1.55c-0.13,0.3-0.2,0.64-0.2,0.98v2.44v9.49H4.17c-1.4,0-2.53,1.14-2.53,2.53v2.44v12.85v9.5v0.04   c0,0.36,0.05,0.7,0.13,1.04c-0.08,0.09-0.13,0.2-0.13,0.32v8.66c0,1.4,1.14,2.53,2.53,2.53h9.27c0.98,0,1.88-0.53,2.36-1.39   l0.32-0.58c0.3-0.54,0.87-0.87,1.49-0.87h3.17c0.55,0,1.07,0.27,1.39,0.71l0.57,0.79c0.46,0.64,1.17,1.05,1.95,1.13   c1.95,0.18,3.87,0.27,5.79,0.27c6.67,0,13.17-1.1,19.72-3.33c0.55-0.19,1-0.58,1.25-1.11c0.26-0.54,0.3-1.14,0.1-1.71l-0.96-2.75   c0.03-0.06,0.05-0.13,0.05-0.19c0-2.07-0.52-4.02-1.44-5.72c4.62-0.47,9.21-1.46,13.67-2.98c0.55-0.19,1-0.58,1.25-1.11   C64.39,40.78,64.43,40.18,64.23,39.61z M42.62,25.18c0.02-0.11,0.02-0.32,0.06-0.31c0.25,0.07,0.44,0.14,0.7,0.19   c0,0,0.01,0,0.01,0c0.03,0.01,0.05,0.01,0.08,0.02c0.87,0.16,5.12,0.42,8.2,0.53c5.88,0.22,10.5,4.92,10.65,10.76   c-0.02,0.01-0.04,0.02-0.06,0.03c-2.77,2.06-7.02,2.76-7.53,2.89c-0.21-0.03-0.42-0.08-0.63-0.12   C44.68,37.47,42.27,27.38,42.62,25.18z M15.31,8.32c0-0.84,0.69-1.53,1.53-1.53h11.23v2.36c0,0.61-0.5,1.11-1.11,1.11H15.31V8.32z    M15.31,11.25h11.65c1.16,0,2.11-0.95,2.11-2.11V6.78h3.72c0.8,0,1.46,0.61,1.53,1.41c0.11,1.34,0.34,3.29,0.78,5.4l-3.03,1.94   c-0.23,0.15-0.3,0.46-0.15,0.69c0.1,0.15,0.26,0.23,0.42,0.23c0.09,0,0.19-0.03,0.27-0.08l2.73-1.74c0.29,1.18,0.65,2.38,1.1,3.53   l-2.16,1.37c-0.23,0.15-0.3,0.46-0.15,0.69c0.09,0.15,0.26,0.23,0.42,0.23c0.09,0,0.18-0.03,0.27-0.08l2.02-1.28   c0.47,1.04,1.04,2.01,1.7,2.86l-1.69,1.08c-0.23,0.15-0.3,0.46-0.15,0.69c0.1,0.15,0.26,0.23,0.42,0.23c0.09,0,0.19-0.03,0.27-0.08   l1.81-1.16c0.61,0.65,1.29,1.19,2.06,1.59l-2.2,1.4c-0.23,0.15-0.3,0.46-0.15,0.69c0.09,0.15,0.26,0.23,0.42,0.23   c0.09,0,0.19-0.03,0.27-0.08l1.91-1.21c1.08,11.19,9.23,13.87,9.4,13.94c0.24,0.1,0.48,0.19,0.72,0.28   c0.17,0.06,0.34,0.12,0.51,0.18c0.07,0.02,0.14,0.05,0.21,0.07c-0.04,0.01-0.08,0.01-0.12,0.02c-0.69,0.12-1.38,0.21-2.06,0.28   c-0.05,0.01-0.1,0.01-0.16,0.01c-0.66,0.06-1.32,0.11-1.98,0.13c-0.08,0-0.15,0.01-0.23,0.01c-0.67,0.02-1.34,0.01-2.01-0.02   c-0.14-0.01-0.28-0.01-0.41-0.02c-0.64-0.03-1.28-0.08-1.93-0.16c-0.03,0-0.07-0.01-0.1-0.01c-1.25-0.53-2.61-0.86-4.04-0.94   c-0.09-0.01-0.18-0.02-0.27-0.02c0,0-0.57-0.02-0.57-0.02c-2-0.08-4-0.28-5.99-0.45c-1.65-0.14-3.34-0.48-4.64-1.57   c-0.08-0.07-0.17-0.14-0.25-0.22c-0.23-0.22-0.45-0.45-0.66-0.7c-0.08-0.1-0.64-0.67-0.6-0.78c0.33-0.98,0.51-2.01,0.51-3.05   c0-3.08-1.49-5.94-3.98-7.73c-0.01-0.12-0.03-0.24-0.05-0.35c-0.01-0.07-0.01-0.13-0.02-0.2c-0.03-0.23-0.05-0.45-0.07-0.66   c-0.03-0.27-0.05-0.53-0.07-0.76c-0.11-1.33-1.19-2.33-2.52-2.33h-4.22h-0.59V11.25z M25.84,32.28c0,0.65-0.07,1.29-0.22,1.91   c-0.03-0.05-0.06-0.1-0.09-0.15c-0.1-0.18-1.72-3.29-2.47-8.05C24.82,27.59,25.84,29.87,25.84,32.28z M2.64,22.77   c0-0.84,0.69-1.53,1.53-1.53h10.64h0.59v2.36c0,0.61-0.5,1.11-1.11,1.11H2.64V22.77z M2.64,25.71h11.65c1.16,0,2.11-0.95,2.11-2.11   v-2.36h3.72c0.8,0,1.46,0.61,1.53,1.41c0.02,0.25,0.75,5.25,0.78,5.4l-3.03,1.94c-0.23,0.15-0.3,0.46-0.15,0.69   c0.1,0.15,0.26,0.23,0.42,0.23c0.09,0,0.19-0.03,0.27-0.08l2.73-1.74c0.1,0.4,0.2,0.8,0.32,1.2c0.02,0.07,0.04,0.13,0.06,0.2   c0.11,0.38,0.23,0.76,0.36,1.14c0.05,0.14,0.11,0.28,0.16,0.43c0.07,0.19,0.13,0.37,0.21,0.56l-2.16,1.37   c-0.23,0.15-0.3,0.46-0.15,0.69c0.09,0.15,0.26,0.23,0.42,0.23c0.09,0,0.19-0.03,0.27-0.08l2.02-1.28   c0.11,0.24,0.22,0.47,0.34,0.71c0.07,0.13,0.14,0.27,0.21,0.4c0.16,0.29,0.33,0.58,0.51,0.85c0.04,0.07,0.08,0.14,0.12,0.21   c0.01,0.01,0.02,0.01,0.03,0.02c0.16,0.23,0.32,0.46,0.49,0.68l-1.69,1.08c-0.23,0.15-0.3,0.46-0.15,0.69   c0.1,0.15,0.26,0.23,0.42,0.23c0.09,0,0.19-0.03,0.27-0.08l1.81-1.15c0.6,0.64,1.28,1.16,2.03,1.56c0,0,0,0,0,0c0,0,0,0,0,0   c0.01,0.01,0.02,0.01,0.04,0.02l-2.2,1.4c-0.23,0.15-0.3,0.46-0.15,0.69c0.09,0.15,0.26,0.23,0.42,0.23c0.09,0,0.18-0.03,0.27-0.08   l1.91-1.21c0.07,6.73,4.58,12.56,10.87,14.46c-2.13,0.37-4.27,0.52-6.4,0.45c-2.87-0.09-5.72-0.58-8.44-1.47   c-0.33-0.11-0.66-0.2-1-0.29c-1.01-0.26-2.05-0.41-3.11-0.46c-0.21-0.01-0.46-0.02-0.74-0.03c-1.76-0.08-4.71-0.22-7.48-0.39   c1.05-1.57,1.62-3.42,1.62-5.32c0-5.25-4.27-9.53-9.52-9.53c-0.68,0-1.35,0.09-2,0.23V25.71z M2.64,38.45   c0.65-0.16,1.32-0.24,2-0.24c4.7,0,8.52,3.83,8.52,8.53c0,1.92-0.62,3.73-1.79,5.24c-0.08-0.01-0.16-0.01-0.23-0.02   c-0.5-0.04-0.99-0.07-1.46-0.11c-0.07-0.01-0.14-0.01-0.21-0.02c-0.52-0.04-1.01-0.1-1.48-0.12c-2.42-0.1-4.03-1.57-4.94-2.54   c0-0.01,0-0.01-0.01-0.01C3.01,49.11,3,49.04,2.97,48.98c-0.2-0.42-0.33-0.9-0.33-1.42V38.45z M50.62,54.4   c0.11,0.31,0.09,0.64-0.06,0.94c-0.14,0.29-0.38,0.5-0.68,0.6c-8.29,2.82-16.5,3.81-25.09,3.01c-0.49-0.05-0.94-0.3-1.23-0.71   l-0.57-0.79c-0.51-0.71-1.33-1.13-2.2-1.13h-3.17c-0.98,0-1.88,0.53-2.36,1.39l-0.32,0.58c-0.3,0.54-0.87,0.87-1.49,0.87h-1.1   v-2.83c0-0.28-0.22-0.5-0.5-0.5s-0.5,0.22-0.5,0.5v2.83H9.09v-2.83c0-0.28-0.22-0.5-0.5-0.5s-0.5,0.22-0.5,0.5v2.83H5.83v-2.83   c0-0.28-0.22-0.5-0.5-0.5s-0.5,0.22-0.5,0.5v2.83H4.17c-0.84,0-1.53-0.69-1.53-1.53v-7.29c0,0,0,0,0.01,0.01   c0,0,0.95,1.15,2.17,1.72c1.29,0.61,2.86,0.64,3.08,0.66c0.3,0.03,0.63,0.05,0.96,0.08c0.84,0.07,1.75,0.13,2.7,0.2   c3.45,0.23,7.44,0.4,9.15,0.48c1.32,0.06,2.64,0.22,3.85,0.71c6.68,2.7,15.32,1.05,15.52,1.02c0.69-0.12,1.38-0.27,2.07-0.43   c0.02,0,0.03-0.01,0.05-0.01c0.01,0,0.01,0,0.02-0.01c3.7-0.91,6.36-2.19,7.53-2.83L50.62,54.4z M49.64,50.84   c-0.01,0.01-0.11,0.18-0.26,0.33c-0.16,0.15-0.44,0.3-0.5,0.33c-2.83,1.1-5.08,1.79-5.37,1.87c-0.47,0.14-0.96,0.27-1.47,0.4   c-6.97-1.01-12.22-7.06-12.22-14.12c0-0.11,0-0.23,0-0.34c0.02,0.01,0.04,0.01,0.06,0.01c0.29,0.09,0.59,0.16,0.91,0.22   c0.88,0.16,5.12,0.42,8.2,0.53c0.36,0.01,0.71,0.04,1.06,0.09c0.29,0.04,0.57,0.1,0.85,0.16l0.16,0.03   c0.64,0.15,1.29,0.36,1.92,0.64c0.01,0,0.02,0,0.03,0.01c2.04,0.9,3.75,2.37,4.93,4.27c0.01,0.01,0.02,0.02,0.03,0.03   C48.99,46.91,49.59,48.8,49.64,50.84z M63.23,40.88c-0.14,0.29-0.38,0.5-0.68,0.6c-4.53,1.54-9.21,2.55-13.9,2.99   c-0.84-1.27-1.91-2.37-3.17-3.24c0.16,0.01,0.32-0.02,0.48,0.01c4.33,0.6,9.72-1.15,10.12-1.26c0.08-0.02,0.15-0.04,0.23-0.06   c2.95-0.86,5.09-1.9,6.1-2.44l0.87,2.47C63.4,40.25,63.38,40.59,63.23,40.88z"/><path d="M18,45.69c0.28,0,0.5-0.22,0.5-0.5v-3.33c0-0.28-0.22-0.5-0.5-0.5s-0.5,0.22-0.5,0.5v3.33C17.5,45.47,17.73,45.69,18,45.69   z"/><path d="M21.26,45.69c0.28,0,0.5-0.22,0.5-0.5v-3.33c0-0.28-0.22-0.5-0.5-0.5s-0.5,0.22-0.5,0.5v3.33   C20.76,45.47,20.99,45.69,21.26,45.69z"/><path d="M24.52,45.69c0.28,0,0.5-0.22,0.5-0.5v-3.33c0-0.28-0.22-0.5-0.5-0.5s-0.5,0.22-0.5,0.5v3.33   C24.02,45.47,24.25,45.69,24.52,45.69z"/></g></svg>